<svg xmlns="http://www.w3.org/2000/svg" xmlns:xlink="http://www.w3.org/1999/xlink" version="1.1" x="0px" y="0px" viewBox="0 0 100 100" fill="#f4ede8" enable-background="new 0 0 100 100" xml:space="preserve"><g><path d="M78.008,23.806c-0.728-1.629-2.772-2.808-4.345-1.965c0.528-1.563,0.697-2.969,0.535-4.303   c-0.051-1.838-0.566-3.665-1.527-5.234c-1.527-2.494-4.136-4.465-4.631-7.346c-0.902,0.783-1.532,1.875-1.757,3.049   c-0.791-0.674-1.039-1.823-0.887-2.852c0.153-1.028,0.646-1.97,1.13-2.89c-1.475,0.737-3.228,0.467-4.858,0.225   c-3.992-0.592-8.046-0.914-12.067-0.57C45.58,2.263,41.58,3.292,38.064,5.274c-1.083,0.61-2.114,1.307-3.144,2.003   c-0.59,0.399-1.18,0.798-1.77,1.196c-0.058,0.039-0.116,0.081-0.175,0.121c-0.475,0.382-0.947,0.768-1.412,1.162   c-0.082,0.088-0.168,0.174-0.242,0.268c-0.237,0.169-0.461,0.354-0.694,0.529c-0.822,0.721-1.632,1.455-2.418,2.215   c-0.542,0.524-1.079,1.062-1.489,1.695c-0.753,1.163-1.03,2.591-0.955,3.975c0.009,0.173,0.023,0.353-0.04,0.514   c-0.141,0.363-0.583,0.478-0.947,0.617c-1.449,0.556-2.261,2.121-2.587,3.639c-0.104,0.481-0.169,0.97-0.228,1.46   c0.029,0.809,0.08,1.605,0.126,2.349c0.146,2.364,0.722,4.669,0.826,7.023c0.189,4.306,0.208,12.352,0.492,15.835   c-0.161,2.346-0.304,5.512-0.368,8.1c-0.136,1.707-0.251,3.412-0.202,5.099c0.099,3.371-0.337,6.86-0.773,10.197   c-0.138,1.059-0.295,2.115-0.469,3.168c-0.078,0.471-0.16,0.956-0.06,1.423c0.085,0.402,0.299,0.764,0.514,1.116   c4.651,7.605,12.23,15.856,21.026,18.425c2.049,0.599,3.905,0.771,5.747,0.8c0.224,0.015,0.489,0.023,0.687,0.014   c0.014,0.001,0.031,0,0.047,0.001v0.001c0.01,0,0.02,0,0.031,0c0.011,0,0.021,0,0.031,0v-0.001c0.016,0,0.033,0,0.046-0.001   c0.198,0.01,0.463,0.002,0.687-0.014c1.842-0.03,3.698-0.202,5.747-0.8c8.796-2.569,16.375-10.82,21.027-18.425   c0.215-0.351,0.429-0.714,0.514-1.116c0.099-0.467,0.018-0.952-0.06-1.423c-0.174-1.053-0.331-2.11-0.469-3.168   c-0.436-3.337-0.872-6.826-0.773-10.197c0.049-1.687-0.066-3.392-0.202-5.099c-0.066-2.678-0.216-5.984-0.385-8.351   c-0.001-0.014-0.004-0.031-0.005-0.046c0.867-6.833,1.682-13.667,2.555-20.5C78.525,27.31,78.736,25.435,78.008,23.806z    M62.931,78.718c-0.019,0.809-0.027,1.618-0.059,2.426c-0.008,0.208-0.029,0.416-0.115,0.604c-0.079,0.172-0.207,0.317-0.333,0.458   c-1.055,1.18-2.127,2.377-3.461,3.227c-0.583,0.371-1.295,0.679-1.948,0.453c-0.309-0.107-0.566-0.324-0.816-0.536l-3.635-3.087   c-0.201-0.171-0.293-0.43-0.266-0.693c0.046-0.452,0.05-0.908,0.01-1.361c-0.035-0.394,0.248-0.738,0.635-0.817   c0.474-0.097,0.94-0.235,1.432-0.245c0.117-0.002,0.254-0.016,0.313-0.117c0.116-0.198-0.194-0.365-0.422-0.387   c-1.345-0.132-2.635,0.031-3.98-0.066c-0.184-0.013-0.428-0.016-0.669-0.015v0c-0.01,0-0.021,0-0.031,0c-0.01,0-0.021,0-0.031,0v0   c-0.241-0.001-0.486,0.002-0.669,0.015c-1.345,0.097-2.635-0.067-3.98,0.066c-0.228,0.022-0.539,0.189-0.422,0.387   c0.059,0.101,0.197,0.115,0.313,0.117c0.492,0.01,0.958,0.148,1.432,0.245c0.387,0.079,0.67,0.422,0.635,0.817   c-0.04,0.453-0.037,0.909,0.01,1.361c0.027,0.263-0.065,0.522-0.266,0.693l-3.635,3.087c-0.25,0.212-0.507,0.429-0.816,0.536   c-0.652,0.226-1.365-0.082-1.948-0.453c-1.334-0.85-2.407-2.046-3.461-3.227c-0.126-0.141-0.254-0.285-0.333-0.458   c-0.086-0.188-0.107-0.396-0.115-0.604c-0.032-0.808-0.039-1.617-0.059-2.426c-0.005-0.202,0-0.405,0.021-0.606   c-0.011-0.145-0.021-0.29-0.032-0.436c0.164-0.62,0.44-1.222,0.798-1.749c0.755-1.113,2.049-1.842,3.402-1.947   c0.046-0.012,0.731,0.036,1.033,0.059c4.524,0.334,5.892-0.341,7.889-2.37c0,0,0.001-0.002,0.235-0.312   c0.234,0.31,0.235,0.312,0.235,0.312c1.998,2.029,3.365,2.704,7.889,2.37c0.302-0.022,0.987-0.07,1.033-0.059   c1.353,0.105,2.647,0.834,3.402,1.947c0.357,0.526,0.632,1.125,0.797,1.744c-0.012,0.147-0.022,0.294-0.033,0.441   C62.931,78.312,62.936,78.515,62.931,78.718z M73.898,60.564c-0.053,0.425-0.108,0.857-0.275,1.252   c-0.19,0.449-0.514,0.826-0.833,1.195c-2.152,2.485-4.304,4.97-6.455,7.455c-0.579,0.668-1.169,1.356-1.48,2.184   c-0.147,0.392-0.234,0.809-0.396,1.193c-0.104,0.278-0.253,0.538-0.414,0.883c-0.057,0.121-0.122,0.239-0.188,0.356   c-0.188-0.986-0.327-1.326-0.629-2.116c-0.519-1.013-1.303-1.9-2.233-2.577c-1.213-0.882-2.652-1.417-4.131-1.717   c-2.016-0.27-4.256-0.226-6.395-0.341l0-0.001c-0.219-0.012-0.442-0.017-0.659-0.033c0.003-0.009-0.144-0.019-0.218-0.013   c-0.001,0-0.003,0-0.004,0c-0.001,0-0.003,0-0.004,0c-0.074-0.006-0.221,0.004-0.218,0.013c-0.216,0.016-0.44,0.021-0.659,0.033   l0,0.001c-2.139,0.115-4.379,0.071-6.395,0.341c-1.479,0.3-2.918,0.834-4.131,1.717c-0.93,0.677-1.715,1.564-2.233,2.577   c-0.302,0.791-0.441,1.131-0.629,2.118c-0.067-0.117-0.132-0.236-0.189-0.358c-0.162-0.345-0.31-0.605-0.414-0.883   c-0.162-0.384-0.249-0.801-0.396-1.193c-0.311-0.828-0.901-1.516-1.48-2.184c-2.152-2.485-4.304-4.97-6.455-7.455   c-0.319-0.369-0.643-0.745-0.833-1.195c-0.167-0.395-0.222-0.826-0.275-1.252c-0.471-3.767-0.941-7.534-1.412-11.301   c0.566-7.019,0.829-16.642,3.295-22.521c0.724-1.726,1.903-3.557,3.755-3.829c0.335-0.049,0.667-0.066,0.999-0.083   c-0.039-0.027-0.069-0.065-0.109-0.089c-0.949-0.576-2.196-0.457-3.193,0.033s-1.793,1.302-2.552,2.112   c0.448-1.019,1.013-2.017,1.862-2.736s2.028-1.122,3.1-0.825c0.725,0.202,1.33,0.692,1.911,1.171   c-0.592-1.417-1.196-2.901-1.078-4.432c0.095-1.229,0.653-2.378,1.334-3.405c-0.697,2.065-0.402,4.442,0.78,6.273   c0.771,1.195,1.912,2.135,3.212,2.708c0.417,0.132,0.832,0.273,1.247,0.423c0.308,0.074,0.62,0.133,0.936,0.165   c-2.404-1.533-3.572-4.613-3.209-7.44c0.363-2.827,2.084-5.364,4.318-7.135s4.948-2.842,7.706-3.562   c-0.592,0.155-1.461,1.113-2.038,1.445c-0.638,0.367-1.299,0.538-1.943,0.853c-1.492,0.73-2.991,2.061-3.995,3.37   c-1.586,2.066-2.223,4.824-1.739,7.383c0.263,1.392,0.854,2.714,1.689,3.857c0.716,0.98,1.611,1.662,2.524,2.437   c0.208,0.177,0.416,0.353,0.64,0.51c0.445,0.312,0.933,0.531,1.425,0.751c0.274,0.122,0.547,0.246,0.822,0.365   c0.225,0.097,0.597,0.173,0.783,0.327c-1.141-0.948-2.058-1.92-2.409-3.419c-0.364-1.557-0.455-3.102-1.099-4.592   c0.537,0.378,0.964,0.91,1.217,1.515c0.28,0.669,0.346,1.406,0.519,2.111c0.626,2.543,2.794,4.64,5.357,5.181   c-0.808-0.52-1.648-1.073-2.117-1.912c-1.022-1.826-0.478-4.747,0.875-6.288c0.842-0.959,1.722-1.82,2.824-2.474   c1.074-0.637,2.148-1.274,3.222-1.91c0.537-0.318,1.074-0.637,1.611-0.955c0.243-0.144,1.19-0.45,1.321-0.689   c-0.184,0.334-0.405,0.636-0.642,0.925c-1.383,1.681-3.545,2.699-5.118,4.268c-1.639,1.635-2.608,3.924-2.642,6.239   c-0.009,0.582,0.044,1.182,0.3,1.705c0.256,0.523,0.749,0.96,1.329,1.015c0.348-2.321,1.349-4.627,3.175-6.101   c1.383-1.116,3.123-1.676,4.838-2.143c1.714-0.467,3.473-0.875,5.017-1.754c0.458-0.261,0.893-0.577,1.291-0.932   c0.065-0.058,0.131-0.116,0.194-0.177c0.077-0.074,0.151-0.149,0.224-0.226c0.07-0.074,0.137-0.15,0.203-0.226   c0.061-0.071,0.123-0.141,0.181-0.214c0.115-0.146,0.223-0.296,0.322-0.451c0.031-0.049,0.057-0.1,0.086-0.15   c0.073-0.123,0.142-0.248,0.204-0.376c0.031-0.063,0.058-0.127,0.086-0.191c0.055-0.126,0.103-0.254,0.146-0.385   c0.02-0.06,0.041-0.119,0.058-0.18c0.054-0.19,0.1-0.384,0.128-0.583c0.038,0.275,0.041,0.547,0.028,0.817   c-0.003,0.052-0.002,0.105-0.007,0.156c-0.02,0.239-0.063,0.474-0.119,0.707c-0.022,0.089-0.046,0.178-0.073,0.267   c-0.054,0.179-0.119,0.355-0.192,0.529c-0.065,0.153-0.138,0.303-0.216,0.451c-0.034,0.066-0.071,0.13-0.108,0.195   c-0.157,0.272-0.331,0.537-0.526,0.79c-0.651,0.843-1.488,1.574-2.397,2.109c-2.138,1.261-4.619,1.797-6.889,2.803   c-2.205,0.977-4.341,2.623-4.932,4.944c-0.017,0.065-0.058,0.12-0.072,0.186c0.164,0.012,0.397-0.12,0.569-0.163   c0.209-0.052,0.423-0.086,0.637-0.11c0.497-0.054,1.035-0.093,1.529-0.009c0.681,0.116,1.336,0.393,1.875,0.827   c1.023,0.823,1.586,2.069,2.272,3.189c0.686,1.119,1.654,2.223,2.954,2.403c-2.036-1.429-1.887-4.673-3.73-6.344   c-0.517-0.469-1.158-0.778-1.801-1.051c-0.09-0.038-0.182-0.074-0.274-0.111c0.344-0.116,0.694-0.237,1.015-0.339   c2.708-0.862,5.947-1.647,8.783-2.225c1.05-0.192,3.476,0.288,4.497,0.555c0.683,0.179,1.604-0.01,1.604-0.01   c-0.635,0.73-0.653,1.834-0.343,2.75c0.31,0.916,0.895,1.709,1.388,2.541c3.442,5.808,2.271,13.024,2.735,19.819   C74.803,53.321,74.35,56.942,73.898,60.564z"/><path d="M71.407,43.212c-1.235-1.103-2.724-1.919-4.318-2.367c-1.99-0.559-4.094-0.542-6.157-0.405   c-2.158,0.143-4.308,0.413-6.435,0.807c-2.543,0.472,0.85,2.427,1.943,2.525c1.144,0.102,2.286-0.191,3.376-0.552   c1.09-0.361,2.165-0.795,3.297-0.988c2.992-0.511,6.018,0.711,8.603,2.301c0.217-0.148,0.263-0.464,0.173-0.71   C71.798,43.577,71.603,43.386,71.407,43.212z"/><path d="M45.05,41.248c-2.127-0.394-4.277-0.664-6.435-0.807c-2.062-0.137-4.167-0.154-6.157,0.405   c-1.594,0.448-3.083,1.264-4.318,2.367c-0.196,0.175-0.391,0.366-0.482,0.612c-0.09,0.246-0.044,0.562,0.173,0.71   c2.585-1.59,5.611-2.812,8.603-2.301c1.132,0.193,2.207,0.627,3.297,0.988c1.09,0.361,2.232,0.654,3.376,0.552   C44.2,43.675,47.593,41.719,45.05,41.248z"/></g></svg>
